<svg width="18" height="24" viewBox="0 0 18 24" fill="none" xmlns="http://www.w3.org/2000/svg">
<path d="M14.4481 16.8012L11.358 12.4166L15.52 7.72003C16.44 6.68002 16.92 5.24002 16.8 3.84005C16.6 1.20005 16.0401 0.280031 16 0.200062C15.92 0.0800156 15.8 0 15.68 0C15.52 0 15.4 0.0399844 15.32 0.159984L8.99934 9.06984L2.72002 0.159984C2.67998 0.0800156 2.52 0 2.4 0C2.24002 0 2.12002 0.0800156 2.07998 0.200016C1.99997 0.280031 1.47998 1.2 1.27997 3.84C1.15997 5.24002 1.63997 6.63998 2.55998 7.71998L6.62827 12.3645L3.51084 16.8022C1.55278 16.8491 0 18.4299 0 20.4C0 22.4 1.59998 24 3.6 24C5.60002 24 7.2 22.4 7.2 20.4C7.2 19.494 6.87089 18.6707 6.32573 18.0405L8.9677 15.0352L11.6374 18.083C11.1142 18.7076 10.8 19.5144 10.8 20.4C10.8 22.4 12.4 24 14.4 24C16.4 24 18 22.4 18 20.4C18 18.4162 16.4255 16.8267 14.4481 16.8012ZM3.6 23.2C2.04 23.2 0.800016 21.96 0.800016 20.4C0.800016 18.84 2.04 17.6 3.6 17.6C4.27486 17.6 4.88958 17.8324 5.37019 18.222C5.42152 18.2662 5.47177 18.3118 5.52 18.36C5.5417 18.3817 5.56345 18.4002 5.58595 18.416C6.09038 18.9209 6.40003 19.6205 6.40003 20.4C6.39998 21.96 5.16 23.2 3.6 23.2ZM5.80833 17.5504C5.42348 17.2527 4.97625 17.0312 4.48772 16.909L7.2 13.04L8.48002 14.48L5.80833 17.5504ZM9.51998 9.80002L15.56 1.28002C15.72 1.76002 15.92 2.60002 16 3.92002C16.08 5.12002 15.68 6.32002 14.92 7.2L10.8885 11.7504L9.90849 10.36L9.51998 9.80002ZM2.07998 3.87998C2.16 2.59997 2.35997 1.75997 2.52 1.23998L8.63902 9.90862C8.64891 9.94205 8.66213 9.97322 8.67999 9.99998L10.52 12.64C10.5571 12.6772 10.5946 12.714 10.6398 12.7431L13.56 16.88C13.3565 16.9308 13.1603 17.0034 12.9712 17.0913C12.7083 17.204 12.4617 17.3466 12.2361 17.5155L3.15998 7.16002C2.4 6.27998 2.00002 5.07998 2.07998 3.87998ZM14.4 23.2C12.84 23.2 11.6 21.96 11.6 20.4C11.6 19.6131 11.9158 18.9079 12.4287 18.402C12.4469 18.3893 12.4643 18.3757 12.48 18.36C12.9258 17.9514 13.5095 17.6812 14.1351 17.6125C14.2223 17.6046 14.3106 17.6 14.4 17.6C15.96 17.6 17.2 18.84 17.2 20.4C17.2 21.96 15.96 23.2 14.4 23.2Z" fill="#8C8580"/>
<path d="M14.4 18.4C13.28 18.4 12.4 19.28 12.4 20.4C12.4 21.52 13.28 22.4 14.4 22.4C15.52 22.4 16.4 21.52 16.4 20.4C16.4 19.28 15.52 18.4 14.4 18.4ZM14.4 21.6C13.72 21.6 13.2 21.08 13.2 20.4C13.2 19.72 13.72 19.2 14.4 19.2C15.08 19.2 15.6 19.72 15.6 20.4C15.6 21.08 15.08 21.6 14.4 21.6Z" fill="#8C8580"/>
<path d="M3.59999 18.4C2.48001 18.4 1.59998 19.28 1.59998 20.4C1.59998 21.52 2.47996 22.4 3.59999 22.4C4.72002 22.4 5.60001 21.52 5.60001 20.4C5.60001 19.28 4.71998 18.4 3.59999 18.4ZM3.59999 21.6C2.91998 21.6 2.39999 21.08 2.39999 20.4C2.39999 19.72 2.91998 19.2 3.59999 19.2C4.28001 19.2 4.79999 19.72 4.79999 20.4C4.79999 21.08 4.28001 21.6 3.59999 21.6Z" fill="#8C8580"/>
</svg>
